<svg width="16" height="16" viewBox="0 0 16 16" fill="none" xmlns="http://www.w3.org/2000/svg">
<path d="M15.546 13.9543C15.7573 14.1656 15.876 14.4523 15.876 14.7512C15.876 15.05 15.7573 15.3367 15.546 15.548C15.3346 15.7594 15.048 15.8781 14.7491 15.8781C14.4502 15.8781 14.1636 15.7594 13.9522 15.548L8.00002 9.59398L2.04596 15.5462C1.83461 15.7575 1.54797 15.8762 1.24908 15.8762C0.950197 15.8762 0.663552 15.7575 0.452208 15.5462C0.240864 15.3348 0.122131 15.0482 0.122131 14.7493C0.122131 14.4504 0.240864 14.1638 0.452208 13.9524L6.40627 8.00023L0.454083 2.04616C0.242738 1.83482 0.124006 1.54817 0.124006 1.24929C0.124006 0.950402 0.242738 0.663757 0.454083 0.452413C0.665427 0.241068 0.952071 0.122336 1.25096 0.122336C1.54984 0.122336 1.83649 0.241068 2.04783 0.452413L8.00002 6.40648L13.9541 0.451475C14.1654 0.240131 14.4521 0.121399 14.751 0.121399C15.0498 0.121399 15.3365 0.240131 15.5478 0.451475C15.7592 0.66282 15.8779 0.949464 15.8779 1.24835C15.8779 1.54724 15.7592 1.83388 15.5478 2.04523L9.59377 8.00023L15.546 13.9543Z" fill="#60646C"/>
</svg>
