<svg width="14" height="14" viewBox="0 0 14 14" fill="none" xmlns="http://www.w3.org/2000/svg">
<path d="M13.25 7.00012C13.25 7.19903 13.171 7.3898 13.0303 7.53045C12.8897 7.6711 12.6989 7.75012 12.5 7.75012H7.75V12.5001C7.75 12.699 7.67098 12.8898 7.53033 13.0305C7.38968 13.1711 7.19891 13.2501 7 13.2501C6.80109 13.2501 6.61032 13.1711 6.46967 13.0305C6.32902 12.8898 6.25 12.699 6.25 12.5001V7.75012H1.5C1.30109 7.75012 1.11032 7.6711 0.96967 7.53045C0.829018 7.3898 0.75 7.19903 0.75 7.00012C0.75 6.80121 0.829018 6.61044 0.96967 6.46979C1.11032 6.32914 1.30109 6.25012 1.5 6.25012H6.25V1.50012C6.25 1.30121 6.32902 1.11044 6.46967 0.969792C6.61032 0.82914 6.80109 0.750122 7 0.750122C7.19891 0.750122 7.38968 0.82914 7.53033 0.969792C7.67098 1.11044 7.75 1.30121 7.75 1.50012V6.25012H12.5C12.6989 6.25012 12.8897 6.32914 13.0303 6.46979C13.171 6.61044 13.25 6.80121 13.25 7.00012Z" fill="#7E808A"/>
</svg>
