<svg width="14" height="14" viewBox="0 0 14 14" fill="none" xmlns="http://www.w3.org/2000/svg">
<path d="M7 0.500366C5.71442 0.500366 4.45772 0.881585 3.3888 1.59581C2.31988 2.31004 1.48676 3.3252 0.994786 4.51292C0.502816 5.70064 0.374095 7.00758 0.624899 8.26845C0.875703 9.52933 1.49477 10.6875 2.40381 11.5966C3.31285 12.5056 4.47104 13.1247 5.73192 13.3755C6.99279 13.6263 8.29973 13.4976 9.48744 13.0056C10.6752 12.5136 11.6903 11.6805 12.4046 10.6116C13.1188 9.54265 13.5 8.28594 13.5 7.00037C13.4982 5.27702 12.8128 3.62477 11.5942 2.40618C10.3756 1.18759 8.72335 0.502186 7 0.500366ZM6.75 3.50037C6.89834 3.50037 7.04334 3.54435 7.16668 3.62676C7.29002 3.70917 7.38615 3.82631 7.44291 3.96335C7.49968 4.1004 7.51453 4.2512 7.48559 4.39668C7.45665 4.54217 7.38522 4.67581 7.28033 4.7807C7.17544 4.88559 7.04181 4.95702 6.89632 4.98596C6.75083 5.01489 6.60003 5.00004 6.46299 4.94328C6.32595 4.88651 6.20881 4.79038 6.1264 4.66704C6.04399 4.54371 6 4.3987 6 4.25037C6 4.05145 6.07902 3.86069 6.21967 3.72004C6.36032 3.57938 6.55109 3.50037 6.75 3.50037ZM7.5 10.5004C7.23479 10.5004 6.98043 10.395 6.7929 10.2075C6.60536 10.0199 6.5 9.76558 6.5 9.50037V7.00037C6.36739 7.00037 6.24022 6.94769 6.14645 6.85392C6.05268 6.76015 6 6.63297 6 6.50037C6 6.36776 6.05268 6.24058 6.14645 6.14681C6.24022 6.05304 6.36739 6.00037 6.5 6.00037C6.76522 6.00037 7.01957 6.10572 7.20711 6.29326C7.39465 6.4808 7.5 6.73515 7.5 7.00037V9.50037C7.63261 9.50037 7.75979 9.55304 7.85356 9.64681C7.94732 9.74058 8 9.86776 8 10.0004C8 10.133 7.94732 10.2602 7.85356 10.3539C7.75979 10.4477 7.63261 10.5004 7.5 10.5004Z" fill="black"/>
</svg>
